<svg width="676" height="676" viewBox="0 0 676 676" fill="none" xmlns="http://www.w3.org/2000/svg">
<path d="M70 458.5C75.5228 458.5 80 462.977 80 468.5V516C80 560.183 115.817 596 160 596H210C215.523 596 220 600.477 220 606V656C220 661.523 215.523 666 210 666H160C77.1573 666 10 598.843 10 516V468.5C10 462.977 14.4772 458.5 20 458.5H70ZM656 456.5C661.523 456.5 666 460.977 666 466.5V516C666 598.843 598.843 666 516 666H465C459.477 666 455 661.523 455 656V606C455 600.477 459.477 596 465 596H516C560.183 596 596 560.183 596 516V466.5C596 460.977 600.477 456.5 606 456.5H656ZM210 10C215.523 10 220 14.4772 220 20V70C220 75.5228 215.523 80 210 80H161C116.673 80 80 115.96 80 160V211C80 216.523 75.5228 221 70 221H20C14.4772 221 10 216.523 10 211V160L10.0127 158.06C11.0673 76.0214 78.8964 10 161 10H210Z" fill="black" stroke="black" style="fill:black;fill-opacity:1;stroke:black;stroke-opacity:1;" stroke-width="20" stroke-linejoin="round"/>
</svg>
