<svg width="553" height="551" viewBox="0 0 553 551" fill="none" xmlns="http://www.w3.org/2000/svg">
<path d="M491.589 10.0745C502.7 9.35475 512.892 13.9117 521.275 22.2952L530.275 31.2952C538.649 39.6686 543.498 49.7924 542.909 60.9856C542.332 71.9607 536.618 82.0948 527.775 90.9377L527.744 90.969L527.712 90.9993L470.77 146.942L110.27 506.943L108.869 508.341L107.04 509.101L36.0401 538.601L36.0391 538.6C27.9079 542.029 20.0198 538.811 15.4532 534.004C10.897 529.208 8.13526 521.306 11.5118 513.427L11.5528 513.333L11.5948 513.24L42.8448 444.24L43.5967 442.579L44.8878 441.29L405.388 81.2903L405.394 81.2854L405.398 81.2795L461.898 25.0295L461.92 25.0081L461.941 24.9875C470.669 16.4032 480.742 10.7771 491.589 10.0745Z" fill="black" stroke="black" style="fill:black;fill-opacity:1;stroke:black;stroke-opacity:1;" stroke-width="20"/>
</svg>
